# xmcd
#
# Track frame offsets: 
#        150
#        17731
#        30994
#        46023
#        59664
#        74328
#        90847
#        108934
#        126031
#        141311
#        155439
#        168451
#
# Disc length: 2414 seconds
#
# Revision: 4
# Processed by: cddbd v1.5.2PL0 Copyright (c) Steve Scherf et al.
# Submitted via: ExactAudioCopy v0.99pb5
#
DISCID=95096c0c
DTITLE=Зьмiцер Вайцюшкевiч - Паравiны Году
DYEAR=2003
DGENRE=Vocal
TTITLE0=Piano
TTITLE1=Пошукi Адказау
TTITLE2=Прыйдзi, Мой Каханы
TTITLE3=Будзе Дождж
TTITLE4=Ты Прымусiла Пець
TTITLE5=Я Ведаю
TTITLE6=Я Iшоў Да Цябе
TTITLE7=Раскажы
TTITLE8=Iншым Часам
TTITLE9=Перажыты Дзень
TTITLE10=У Гэтых Вачах
TTITLE11=Пад Уздых Каганца
EXTD=YEAR: 2003
EXTT0=
EXTT1=
EXTT2=
EXTT3=
EXTT4=
EXTT5=
EXTT6=
EXTT7=
EXTT8=
EXTT9=
EXTT10=
EXTT11=
PLAYORDER=
